{
  "asset": {
    "generator": "glTF-Transform v4.5.0",
    "version": "2.0"
  },
  "accessors": [
    {
      "type": "SCALAR",
      "componentType": 5123,
      "count": 32178,
      "bufferView": 0,
      "byteOffset": 0
    },
    {
      "type": "VEC3",
      "componentType": 5126,
      "count": 14303,
      "max": [
        0.14900031685829163,
        0.2641673982143402,
        0.20400206744670868
      ],
      "min": [
        -0.14900030195713043,
        2.3841863594498136e-8,
        -0.20400206744670868
      ],
      "bufferView": 1,
      "byteOffset": 0
    },
    {
      "type": "VEC3",
      "componentType": 5126,
      "count": 14303,
      "bufferView": 1,
      "byteOffset": 12
    },
    {
      "type": "VEC2",
      "componentType": 5126,
      "count": 14303,
      "bufferView": 1,
      "byteOffset": 24
    }
  ],
  "bufferViews": [
    {
      "buffer": 0,
      "byteOffset": 0,
      "byteLength": 64356,
      "target": 34963
    },
    {
      "buffer": 0,
      "byteOffset": 64356,
      "byteLength": 457696,
      "byteStride": 32,
      "target": 34962
    }
  ],
  "samplers": [
    {
      "magFilter": 9729,
      "minFilter": 9987,
      "wrapS": 10497,
      "wrapT": 10497
    }
  ],
  "textures": [
    {
      "source": 1,
      "sampler": 0
    },
    {
      "source": 0,
      "sampler": 0
    },
    {
      "source": 2,
      "sampler": 0
    }
  ],
  "images": [
    {
      "name": "plastic_crate_01_nor_gl",
      "mimeType": "image/jpeg",
      "uri": "textures/plastic_crate_01_nor_gl_1k.jpg"
    },
    {
      "name": "plastic_crate_01_diff",
      "mimeType": "image/jpeg",
      "uri": "textures/plastic_crate_01_diff_1k.jpg"
    },
    {
      "name": "plastic_crate_01_metal-plastic_crate_01_rough",
      "mimeType": "image/jpeg",
      "uri": "textures/plastic_crate_01_arm_1k.jpg"
    }
  ],
  "buffers": [
    {
      "uri": "plastic_crate_01.bin",
      "byteLength": 522052
    }
  ],
  "materials": [
    {
      "name": "plastic_crate_01",
      "doubleSided": true,
      "pbrMetallicRoughness": {
        "baseColorTexture": {
          "index": 0
        },
        "metallicRoughnessTexture": {
          "index": 2
        }
      },
      "normalTexture": {
        "index": 1
      }
    }
  ],
  "meshes": [
    {
      "name": "Cube.047",
      "primitives": [
        {
          "attributes": {
            "POSITION": 1,
            "NORMAL": 2,
            "TEXCOORD_0": 3
          },
          "mode": 4,
          "material": 0,
          "indices": 0
        }
      ]
    }
  ],
  "nodes": [
    {
      "name": "plastic_crate_01",
      "mesh": 0
    }
  ],
  "scenes": [
    {
      "name": "Scene",
      "nodes": [
        0
      ]
    }
  ],
  "scene": 0
}