{
  "asset": {
    "generator": "glTF-Transform v4.5.0",
    "version": "2.0"
  },
  "accessors": [
    {
      "type": "SCALAR",
      "componentType": 5123,
      "count": 1158,
      "bufferView": 0,
      "byteOffset": 0
    },
    {
      "type": "SCALAR",
      "componentType": 5123,
      "count": 13806,
      "bufferView": 0,
      "byteOffset": 2316
    },
    {
      "type": "VEC3",
      "componentType": 5126,
      "count": 464,
      "max": [
        0.32854655385017395,
        0.2415962517261505,
        0.016477327793836594
      ],
      "min": [
        -0.003137260675430298,
        -0.24546650052070618,
        -0.0026449114084243774
      ],
      "bufferView": 1,
      "byteOffset": 0
    },
    {
      "type": "VEC3",
      "componentType": 5126,
      "count": 464,
      "bufferView": 1,
      "byteOffset": 12
    },
    {
      "type": "VEC2",
      "componentType": 5126,
      "count": 464,
      "bufferView": 1,
      "byteOffset": 24
    },
    {
      "type": "VEC3",
      "componentType": 5126,
      "count": 6772,
      "max": [
        0.17465750873088837,
        0.251571387052536,
        0.04702533408999443
      ],
      "min": [
        -0.16991659998893738,
        -0.251571387052536,
        -0.04748108983039856
      ],
      "bufferView": 2,
      "byteOffset": 0
    },
    {
      "type": "VEC3",
      "componentType": 5126,
      "count": 6772,
      "bufferView": 2,
      "byteOffset": 12
    },
    {
      "type": "VEC2",
      "componentType": 5126,
      "count": 6772,
      "bufferView": 2,
      "byteOffset": 24
    }
  ],
  "bufferViews": [
    {
      "buffer": 0,
      "byteOffset": 0,
      "byteLength": 29928,
      "target": 34963
    },
    {
      "buffer": 0,
      "byteOffset": 29928,
      "byteLength": 14848,
      "byteStride": 32,
      "target": 34962
    },
    {
      "buffer": 0,
      "byteOffset": 44776,
      "byteLength": 216704,
      "byteStride": 32,
      "target": 34962
    }
  ],
  "samplers": [
    {
      "magFilter": 9729,
      "minFilter": 9987,
      "wrapS": 10497,
      "wrapT": 10497
    }
  ],
  "textures": [
    {
      "source": 1,
      "sampler": 0
    },
    {
      "source": 0,
      "sampler": 0
    },
    {
      "source": 2,
      "sampler": 0
    }
  ],
  "images": [
    {
      "name": "power_box_01_nor_gl",
      "mimeType": "image/jpeg",
      "uri": "textures/power_box_01_nor_gl_1k.jpg"
    },
    {
      "name": "power_box_01_diff",
      "mimeType": "image/jpeg",
      "uri": "textures/power_box_01_diff_1k.jpg"
    },
    {
      "name": "power_box_01_metal-power_box_01_rough",
      "mimeType": "image/jpeg",
      "uri": "textures/power_box_01_arm_1k.jpg"
    }
  ],
  "buffers": [
    {
      "uri": "power_box_01.bin",
      "byteLength": 261480
    }
  ],
  "materials": [
    {
      "name": "power_box_01",
      "doubleSided": true,
      "pbrMetallicRoughness": {
        "baseColorTexture": {
          "index": 0
        },
        "metallicRoughnessTexture": {
          "index": 2
        }
      },
      "normalTexture": {
        "index": 1
      }
    }
  ],
  "meshes": [
    {
      "name": "Plane",
      "primitives": [
        {
          "attributes": {
            "POSITION": 2,
            "NORMAL": 3,
            "TEXCOORD_0": 4
          },
          "mode": 4,
          "material": 0,
          "indices": 0
        }
      ]
    },
    {
      "name": "Cube.002",
      "primitives": [
        {
          "attributes": {
            "POSITION": 5,
            "NORMAL": 6,
            "TEXCOORD_0": 7
          },
          "mode": 4,
          "material": 0,
          "indices": 1
        }
      ]
    }
  ],
  "nodes": [
    {
      "name": "power_box_01_door",
      "translation": [
        -0.1638297140598297,
        0.000004995614290237427,
        0.04318104311823845
      ],
      "rotation": [
        0,
        -0.8152777552604675,
        0,
        0.5790701508522034
      ],
      "mesh": 0
    },
    {
      "name": "power_box_01_box",
      "mesh": 1
    }
  ],
  "scenes": [
    {
      "name": "Scene",
      "nodes": [
        0,
        1
      ]
    }
  ],
  "scene": 0
}