{
  "asset": {
    "generator": "glTF-Transform v4.5.0",
    "version": "2.0"
  },
  "accessors": [
    {
      "type": "SCALAR",
      "componentType": 5123,
      "count": 15888,
      "bufferView": 0,
      "byteOffset": 0
    },
    {
      "type": "SCALAR",
      "componentType": 5123,
      "count": 432,
      "bufferView": 0,
      "byteOffset": 31776
    },
    {
      "type": "VEC3",
      "componentType": 5126,
      "count": 5209,
      "max": [
        0.4147079586982727,
        1.5585498809814453,
        0.26767003536224365
      ],
      "min": [
        -0.4218229055404663,
        -0.0018960833549499512,
        -0.3872338831424713
      ],
      "bufferView": 1,
      "byteOffset": 0
    },
    {
      "type": "VEC3",
      "componentType": 5126,
      "count": 5209,
      "bufferView": 1,
      "byteOffset": 12
    },
    {
      "type": "VEC2",
      "componentType": 5126,
      "count": 5209,
      "bufferView": 1,
      "byteOffset": 24
    },
    {
      "type": "VEC3",
      "componentType": 5126,
      "count": 168,
      "max": [
        0.05502548813819885,
        1.5278592109680176,
        0.028239265084266663
      ],
      "min": [
        -0.3033144474029541,
        1.0609986782073975,
        0.0032566534355282784
      ],
      "bufferView": 2,
      "byteOffset": 0
    },
    {
      "type": "VEC3",
      "componentType": 5126,
      "count": 168,
      "bufferView": 2,
      "byteOffset": 12
    },
    {
      "type": "VEC2",
      "componentType": 5126,
      "count": 168,
      "bufferView": 2,
      "byteOffset": 24
    }
  ],
  "bufferViews": [
    {
      "buffer": 0,
      "byteOffset": 0,
      "byteLength": 32640,
      "target": 34963
    },
    {
      "buffer": 0,
      "byteOffset": 32640,
      "byteLength": 166688,
      "byteStride": 32,
      "target": 34962
    },
    {
      "buffer": 0,
      "byteOffset": 199328,
      "byteLength": 5376,
      "byteStride": 32,
      "target": 34962
    }
  ],
  "samplers": [
    {
      "magFilter": 9729,
      "minFilter": 9987,
      "wrapS": 10497,
      "wrapT": 10497
    }
  ],
  "textures": [
    {
      "source": 1,
      "sampler": 0
    },
    {
      "source": 0,
      "sampler": 0
    },
    {
      "source": 2,
      "sampler": 0
    },
    {
      "source": 3,
      "sampler": 0
    }
  ],
  "images": [
    {
      "name": "portable_welding_cart_nor_gl",
      "mimeType": "image/jpeg",
      "uri": "textures/portable_welding_cart_nor_gl_1k.jpg"
    },
    {
      "name": "portable_welding_cart_diff",
      "mimeType": "image/jpeg",
      "uri": "textures/portable_welding_cart_diff_1k.jpg"
    },
    {
      "name": "portable_welding_cart_metal-portable_welding_cart_rough",
      "mimeType": "image/jpeg",
      "uri": "textures/portable_welding_cart_arm_1k.jpg"
    },
    {
      "name": "portable_welding_cart_diff-portable_welding_cart_alpha",
      "mimeType": "image/jpeg",
      "uri": "textures/portable_welding_cart_diff_1k.jpg"
    }
  ],
  "buffers": [
    {
      "uri": "portable_welding_cart.bin",
      "byteLength": 204704
    }
  ],
  "materials": [
    {
      "name": "portable_welding_cart",
      "doubleSided": true,
      "pbrMetallicRoughness": {
        "baseColorTexture": {
          "index": 0
        },
        "metallicRoughnessTexture": {
          "index": 2
        }
      },
      "normalTexture": {
        "index": 1
      }
    },
    {
      "name": "portable_welding_cart_glass",
      "alphaMode": "BLEND",
      "doubleSided": true,
      "pbrMetallicRoughness": {
        "baseColorTexture": {
          "index": 3
        },
        "metallicRoughnessTexture": {
          "index": 2
        }
      },
      "normalTexture": {
        "index": 1
      }
    }
  ],
  "meshes": [
    {
      "name": "Cylinder.044",
      "primitives": [
        {
          "attributes": {
            "POSITION": 2,
            "NORMAL": 3,
            "TEXCOORD_0": 4
          },
          "mode": 4,
          "material": 0,
          "indices": 0
        },
        {
          "attributes": {
            "POSITION": 5,
            "NORMAL": 6,
            "TEXCOORD_0": 7
          },
          "mode": 4,
          "material": 1,
          "indices": 1
        }
      ]
    }
  ],
  "nodes": [
    {
      "name": "portable_welding_cart",
      "mesh": 0
    }
  ],
  "scenes": [
    {
      "name": "Scene",
      "nodes": [
        0
      ]
    }
  ],
  "scene": 0
}