{
  "asset": {
    "generator": "glTF-Transform v4.5.0",
    "version": "2.0"
  },
  "accessors": [
    {
      "type": "SCALAR",
      "componentType": 5123,
      "count": 4746,
      "bufferView": 0,
      "byteOffset": 0
    },
    {
      "type": "SCALAR",
      "componentType": 5123,
      "count": 2283,
      "bufferView": 0,
      "byteOffset": 9492
    },
    {
      "type": "SCALAR",
      "componentType": 5123,
      "count": 468,
      "bufferView": 0,
      "byteOffset": 14060
    },
    {
      "type": "VEC3",
      "componentType": 5126,
      "count": 2220,
      "max": [
        0.6210327744483948,
        0.3839779496192932,
        0.25988930463790894
      ],
      "min": [
        -0.6210327744483948,
        -0.033854007720947266,
        -0.25988930463790894
      ],
      "bufferView": 1,
      "byteOffset": 0
    },
    {
      "type": "VEC3",
      "componentType": 5126,
      "count": 2220,
      "bufferView": 1,
      "byteOffset": 12
    },
    {
      "type": "VEC2",
      "componentType": 5126,
      "count": 2220,
      "bufferView": 1,
      "byteOffset": 24
    },
    {
      "type": "VEC3",
      "componentType": 5126,
      "count": 1044,
      "max": [
        0.6012791991233826,
        0.04860854148864746,
        0.4704608917236328
      ],
      "min": [
        -0.6001027226448059,
        -0.002477682661265135,
        -0.0024809977039694786
      ],
      "bufferView": 2,
      "byteOffset": 0
    },
    {
      "type": "VEC3",
      "componentType": 5126,
      "count": 1044,
      "bufferView": 2,
      "byteOffset": 12
    },
    {
      "type": "VEC2",
      "componentType": 5126,
      "count": 1044,
      "bufferView": 2,
      "byteOffset": 24
    },
    {
      "type": "VEC3",
      "componentType": 5126,
      "count": 151,
      "max": [
        0.3931261897087097,
        0.04061909019947052,
        0.003191511146724224
      ],
      "min": [
        -0.39353227615356445,
        -0.0027279371861368418,
        -0.0033034253865480423
      ],
      "bufferView": 3,
      "byteOffset": 0
    },
    {
      "type": "VEC3",
      "componentType": 5126,
      "count": 151,
      "bufferView": 3,
      "byteOffset": 12
    },
    {
      "type": "VEC2",
      "componentType": 5126,
      "count": 151,
      "bufferView": 3,
      "byteOffset": 24
    }
  ],
  "bufferViews": [
    {
      "buffer": 0,
      "byteOffset": 0,
      "byteLength": 14996,
      "target": 34963
    },
    {
      "buffer": 0,
      "byteOffset": 14996,
      "byteLength": 71040,
      "byteStride": 32,
      "target": 34962
    },
    {
      "buffer": 0,
      "byteOffset": 86036,
      "byteLength": 33408,
      "byteStride": 32,
      "target": 34962
    },
    {
      "buffer": 0,
      "byteOffset": 119444,
      "byteLength": 4832,
      "byteStride": 32,
      "target": 34962
    }
  ],
  "samplers": [
    {
      "magFilter": 9729,
      "minFilter": 9987,
      "wrapS": 10497,
      "wrapT": 10497
    }
  ],
  "textures": [
    {
      "source": 1,
      "sampler": 0
    },
    {
      "source": 0,
      "sampler": 0
    },
    {
      "source": 2,
      "sampler": 0
    }
  ],
  "images": [
    {
      "name": "wooden_military_crate_nor_gl",
      "mimeType": "image/jpeg",
      "uri": "textures/wooden_military_crate_nor_gl_1k.jpg"
    },
    {
      "name": "wooden_military_crate_diff",
      "mimeType": "image/jpeg",
      "uri": "textures/wooden_military_crate_diff_1k.jpg"
    },
    {
      "name": "wooden_military_crate_metal-wooden_military_crate_rough",
      "mimeType": "image/jpeg",
      "uri": "textures/wooden_military_crate_arm_1k.jpg"
    }
  ],
  "buffers": [
    {
      "uri": "wooden_military_crate.bin",
      "byteLength": 124276
    }
  ],
  "materials": [
    {
      "name": "wooden_military_crate",
      "doubleSided": true,
      "pbrMetallicRoughness": {
        "baseColorTexture": {
          "index": 0
        },
        "metallicRoughnessTexture": {
          "index": 2
        }
      },
      "normalTexture": {
        "index": 1
      }
    }
  ],
  "meshes": [
    {
      "name": "Cube.026",
      "primitives": [
        {
          "attributes": {
            "POSITION": 3,
            "NORMAL": 4,
            "TEXCOORD_0": 5
          },
          "mode": 4,
          "material": 0,
          "indices": 0
        }
      ]
    },
    {
      "name": "Cube.029",
      "primitives": [
        {
          "attributes": {
            "POSITION": 6,
            "NORMAL": 7,
            "TEXCOORD_0": 8
          },
          "mode": 4,
          "material": 0,
          "indices": 1
        }
      ]
    },
    {
      "name": "Cube.001",
      "primitives": [
        {
          "attributes": {
            "POSITION": 9,
            "NORMAL": 10,
            "TEXCOORD_0": 11
          },
          "mode": 4,
          "material": 0,
          "indices": 2
        }
      ]
    }
  ],
  "nodes": [
    {
      "name": "wooden_military_crate",
      "translation": [
        0,
        0.03422325849533081,
        0
      ],
      "mesh": 0
    },
    {
      "name": "wooden_military_crate_lid",
      "translation": [
        0,
        0.4156857132911682,
        -0.23233745992183685
      ],
      "mesh": 1
    },
    {
      "name": "wooden_military_crate_latch",
      "translation": [
        0,
        0.39665794372558594,
        0.23507647216320038
      ],
      "mesh": 2
    }
  ],
  "scenes": [
    {
      "name": "Scene",
      "nodes": [
        0,
        1,
        2
      ]
    }
  ],
  "scene": 0
}