{
  "asset": {
    "generator": "glTF-Transform v4.5.0",
    "version": "2.0"
  },
  "accessors": [
    {
      "type": "SCALAR",
      "componentType": 5123,
      "count": 3978,
      "bufferView": 0,
      "byteOffset": 0
    },
    {
      "type": "SCALAR",
      "componentType": 5123,
      "count": 240,
      "bufferView": 0,
      "byteOffset": 7956
    },
    {
      "type": "SCALAR",
      "componentType": 5123,
      "count": 2499,
      "bufferView": 0,
      "byteOffset": 8436
    },
    {
      "type": "SCALAR",
      "componentType": 5123,
      "count": 462,
      "bufferView": 0,
      "byteOffset": 13436
    },
    {
      "type": "SCALAR",
      "componentType": 5123,
      "count": 462,
      "bufferView": 0,
      "byteOffset": 14360
    },
    {
      "type": "SCALAR",
      "componentType": 5123,
      "count": 3189,
      "bufferView": 0,
      "byteOffset": 15284
    },
    {
      "type": "VEC3",
      "componentType": 5126,
      "count": 1835,
      "max": [
        0.20014899969100952,
        0.12143678218126297,
        0.11380399018526077
      ],
      "min": [
        -0.1998511254787445,
        -0.0006703957915306091,
        -0.10565545409917831
      ],
      "bufferView": 1,
      "byteOffset": 0
    },
    {
      "type": "VEC3",
      "componentType": 5126,
      "count": 1835,
      "bufferView": 1,
      "byteOffset": 12
    },
    {
      "type": "VEC2",
      "componentType": 5126,
      "count": 1835,
      "bufferView": 1,
      "byteOffset": 24
    },
    {
      "type": "VEC3",
      "componentType": 5126,
      "count": 114,
      "max": [
        0.19316866993904114,
        0.035882994532585144,
        0.09332501888275146
      ],
      "min": [
        -0.19316866993904114,
        -0.05100996419787407,
        -0.09332501888275146
      ],
      "bufferView": 2,
      "byteOffset": 0
    },
    {
      "type": "VEC3",
      "componentType": 5126,
      "count": 114,
      "bufferView": 2,
      "byteOffset": 12
    },
    {
      "type": "VEC2",
      "componentType": 5126,
      "count": 114,
      "bufferView": 2,
      "byteOffset": 24
    },
    {
      "type": "VEC3",
      "componentType": 5126,
      "count": 670,
      "max": [
        0.08826681226491928,
        0.01902373507618904,
        0.001959464745596051
      ],
      "min": [
        -0.0882667601108551,
        -0.00974997878074646,
        -0.049274981021881104
      ],
      "bufferView": 3,
      "byteOffset": 0
    },
    {
      "type": "VEC3",
      "componentType": 5126,
      "count": 670,
      "bufferView": 3,
      "byteOffset": 12
    },
    {
      "type": "VEC2",
      "componentType": 5126,
      "count": 670,
      "bufferView": 3,
      "byteOffset": 24
    },
    {
      "type": "VEC3",
      "componentType": 5126,
      "count": 176,
      "max": [
        0.012720995582640171,
        0.006732132285833359,
        0.008262255229055882
      ],
      "min": [
        -0.010982025414705276,
        -0.03917273133993149,
        -0.0016482406063005328
      ],
      "bufferView": 4,
      "byteOffset": 0
    },
    {
      "type": "VEC3",
      "componentType": 5126,
      "count": 176,
      "bufferView": 4,
      "byteOffset": 12
    },
    {
      "type": "VEC2",
      "componentType": 5126,
      "count": 176,
      "bufferView": 4,
      "byteOffset": 24
    },
    {
      "type": "VEC3",
      "componentType": 5126,
      "count": 176,
      "max": [
        0.013112541288137436,
        0.006777667906135321,
        0.007921606302261353
      ],
      "min": [
        -0.01078210398554802,
        -0.03945205733180046,
        -0.001988873817026615
      ],
      "bufferView": 5,
      "byteOffset": 0
    },
    {
      "type": "VEC3",
      "componentType": 5126,
      "count": 176,
      "bufferView": 5,
      "byteOffset": 12
    },
    {
      "type": "VEC2",
      "componentType": 5126,
      "count": 176,
      "bufferView": 5,
      "byteOffset": 24
    },
    {
      "type": "VEC3",
      "componentType": 5126,
      "count": 1517,
      "max": [
        0.2000001221895218,
        0.08843430131673813,
        0.21328212320804596
      ],
      "min": [
        -0.20000053942203522,
        -0.0025496347807347775,
        -0.0025807530619204044
      ],
      "bufferView": 6,
      "byteOffset": 0
    },
    {
      "type": "VEC3",
      "componentType": 5126,
      "count": 1517,
      "bufferView": 6,
      "byteOffset": 12
    },
    {
      "type": "VEC2",
      "componentType": 5126,
      "count": 1517,
      "bufferView": 6,
      "byteOffset": 24
    }
  ],
  "bufferViews": [
    {
      "buffer": 0,
      "byteOffset": 0,
      "byteLength": 21664,
      "target": 34963
    },
    {
      "buffer": 0,
      "byteOffset": 21664,
      "byteLength": 58720,
      "byteStride": 32,
      "target": 34962
    },
    {
      "buffer": 0,
      "byteOffset": 80384,
      "byteLength": 3648,
      "byteStride": 32,
      "target": 34962
    },
    {
      "buffer": 0,
      "byteOffset": 84032,
      "byteLength": 21440,
      "byteStride": 32,
      "target": 34962
    },
    {
      "buffer": 0,
      "byteOffset": 105472,
      "byteLength": 5632,
      "byteStride": 32,
      "target": 34962
    },
    {
      "buffer": 0,
      "byteOffset": 111104,
      "byteLength": 5632,
      "byteStride": 32,
      "target": 34962
    },
    {
      "buffer": 0,
      "byteOffset": 116736,
      "byteLength": 48544,
      "byteStride": 32,
      "target": 34962
    }
  ],
  "samplers": [
    {
      "magFilter": 9729,
      "minFilter": 9987,
      "wrapS": 10497,
      "wrapT": 10497
    }
  ],
  "textures": [
    {
      "source": 1,
      "sampler": 0
    },
    {
      "source": 0,
      "sampler": 0
    },
    {
      "source": 2,
      "sampler": 0
    }
  ],
  "images": [
    {
      "name": "metal_toolbox_nor_gl",
      "mimeType": "image/jpeg",
      "uri": "textures/metal_toolbox_nor_gl_1k.jpg"
    },
    {
      "name": "metal_toolbox_diff",
      "mimeType": "image/jpeg",
      "uri": "textures/metal_toolbox_diff_1k.jpg"
    },
    {
      "name": "metal_toolbox_metal-metal_toolbox_rough",
      "mimeType": "image/jpeg",
      "uri": "textures/metal_toolbox_arm_1k.jpg"
    }
  ],
  "buffers": [
    {
      "uri": "metal_toolbox.bin",
      "byteLength": 165280
    }
  ],
  "materials": [
    {
      "name": "metal_toolbox",
      "doubleSided": true,
      "pbrMetallicRoughness": {
        "baseColorTexture": {
          "index": 0
        },
        "metallicRoughnessTexture": {
          "index": 2
        }
      },
      "normalTexture": {
        "index": 1
      }
    }
  ],
  "meshes": [
    {
      "name": "Cube.012",
      "primitives": [
        {
          "attributes": {
            "POSITION": 6,
            "NORMAL": 7,
            "TEXCOORD_0": 8
          },
          "mode": 4,
          "material": 0,
          "indices": 0
        }
      ]
    },
    {
      "name": "Cube.013",
      "primitives": [
        {
          "attributes": {
            "POSITION": 9,
            "NORMAL": 10,
            "TEXCOORD_0": 11
          },
          "mode": 4,
          "material": 0,
          "indices": 1
        }
      ]
    },
    {
      "name": "Cylinder.021",
      "primitives": [
        {
          "attributes": {
            "POSITION": 12,
            "NORMAL": 13,
            "TEXCOORD_0": 14
          },
          "mode": 4,
          "material": 0,
          "indices": 2
        }
      ]
    },
    {
      "name": "Cylinder.003",
      "primitives": [
        {
          "attributes": {
            "POSITION": 15,
            "NORMAL": 16,
            "TEXCOORD_0": 17
          },
          "mode": 4,
          "material": 0,
          "indices": 3
        }
      ]
    },
    {
      "name": "Cylinder.006",
      "primitives": [
        {
          "attributes": {
            "POSITION": 18,
            "NORMAL": 19,
            "TEXCOORD_0": 20
          },
          "mode": 4,
          "material": 0,
          "indices": 4
        }
      ]
    },
    {
      "name": "Cylinder.015",
      "primitives": [
        {
          "attributes": {
            "POSITION": 21,
            "NORMAL": 22,
            "TEXCOORD_0": 23
          },
          "mode": 4,
          "material": 0,
          "indices": 5
        }
      ]
    }
  ],
  "nodes": [
    {
      "name": "metal_toolbox",
      "translation": [
        -0.0001489296555519104,
        0.0006703957915306091,
        0
      ],
      "mesh": 0
    },
    {
      "name": "metal_toolbox_tray",
      "translation": [
        0,
        0.15213841199874878,
        0
      ],
      "mesh": 1
    },
    {
      "name": "metal_toolbox_handle",
      "translation": [
        0,
        0.08566431701183319,
        0.1030561551451683
      ],
      "mesh": 2
    },
    {
      "name": "metal_toolbox_handle_latch_l",
      "translation": [
        -0.11792459338903427,
        0.00807546079158783,
        0.20997348427772522
      ],
      "mesh": 3
    },
    {
      "name": "metal_toolbox_handle_latch_r",
      "translation": [
        0.11794313043355942,
        0.008075451478362083,
        0.2103140950202942
      ],
      "mesh": 4
    },
    {
      "name": "metal_toolbox_lid",
      "translation": [
        -0.000009275972843170166,
        0.1195942610502243,
        -0.10313405096530914
      ],
      "rotation": [
        -0.4733262360095978,
        0,
        0,
        0.8808872103691101
      ],
      "mesh": 5,
      "children": [
        2,
        3,
        4
      ]
    }
  ],
  "scenes": [
    {
      "name": "Scene",
      "nodes": [
        0,
        1,
        5
      ]
    }
  ],
  "scene": 0
}