{
  "asset": {
    "generator": "glTF-Transform v4.5.0",
    "version": "2.0"
  },
  "accessors": [
    {
      "type": "SCALAR",
      "componentType": 5123,
      "count": 1821,
      "bufferView": 0,
      "byteOffset": 0
    },
    {
      "type": "SCALAR",
      "componentType": 5123,
      "count": 618,
      "bufferView": 0,
      "byteOffset": 3644
    },
    {
      "type": "SCALAR",
      "componentType": 5123,
      "count": 1083,
      "bufferView": 0,
      "byteOffset": 4880
    },
    {
      "type": "SCALAR",
      "componentType": 5123,
      "count": 2166,
      "bufferView": 0,
      "byteOffset": 7048
    },
    {
      "type": "SCALAR",
      "componentType": 5123,
      "count": 3672,
      "bufferView": 0,
      "byteOffset": 11380
    },
    {
      "type": "VEC3",
      "componentType": 5126,
      "count": 740,
      "max": [
        0.23902001976966858,
        0.0499800443649292,
        0.45374348759651184
      ],
      "min": [
        -0.5309795141220093,
        -0.006987437605857849,
        -0.006987273693084717
      ],
      "bufferView": 1,
      "byteOffset": 0
    },
    {
      "type": "VEC3",
      "componentType": 5126,
      "count": 740,
      "bufferView": 1,
      "byteOffset": 12
    },
    {
      "type": "VEC2",
      "componentType": 5126,
      "count": 740,
      "bufferView": 1,
      "byteOffset": 24
    },
    {
      "type": "VEC3",
      "componentType": 5126,
      "count": 136,
      "max": [
        0.21804064512252808,
        0.059616610407829285,
        0.002632174640893936
      ],
      "min": [
        -0.21804064512252808,
        -0.002809172496199608,
        -0.003393353894352913
      ],
      "bufferView": 2,
      "byteOffset": 0
    },
    {
      "type": "VEC3",
      "componentType": 5126,
      "count": 136,
      "bufferView": 2,
      "byteOffset": 12
    },
    {
      "type": "VEC2",
      "componentType": 5126,
      "count": 136,
      "bufferView": 2,
      "byteOffset": 24
    },
    {
      "type": "VEC3",
      "componentType": 5126,
      "count": 381,
      "max": [
        0.20776356756687164,
        0.008554084226489067,
        0.01017305999994278
      ],
      "min": [
        -0.20776356756687164,
        -0.10190776735544205,
        -0.008944799192249775
      ],
      "bufferView": 3,
      "byteOffset": 0
    },
    {
      "type": "VEC3",
      "componentType": 5126,
      "count": 381,
      "bufferView": 3,
      "byteOffset": 12
    },
    {
      "type": "VEC2",
      "componentType": 5126,
      "count": 381,
      "bufferView": 3,
      "byteOffset": 24
    },
    {
      "type": "VEC3",
      "componentType": 5126,
      "count": 444,
      "max": [
        0.3041503429412842,
        0.23409703373908997,
        0.30862098932266235
      ],
      "min": [
        -0.41303572058677673,
        0.023332038894295692,
        -0.1881302297115326
      ],
      "bufferView": 4,
      "byteOffset": 0
    },
    {
      "type": "VEC3",
      "componentType": 5126,
      "count": 444,
      "bufferView": 4,
      "byteOffset": 12
    },
    {
      "type": "VEC2",
      "componentType": 5126,
      "count": 444,
      "bufferView": 4,
      "byteOffset": 24
    },
    {
      "type": "VEC3",
      "componentType": 5126,
      "count": 1366,
      "max": [
        0.4022199809551239,
        0.25780540704727173,
        0.21899999678134918
      ],
      "min": [
        -0.4019789397716522,
        -0.000014081597328186035,
        -0.22864826023578644
      ],
      "bufferView": 5,
      "byteOffset": 0
    },
    {
      "type": "VEC3",
      "componentType": 5126,
      "count": 1366,
      "bufferView": 5,
      "byteOffset": 12
    },
    {
      "type": "VEC2",
      "componentType": 5126,
      "count": 1366,
      "bufferView": 5,
      "byteOffset": 24
    }
  ],
  "bufferViews": [
    {
      "buffer": 0,
      "byteOffset": 0,
      "byteLength": 18724,
      "target": 34963
    },
    {
      "buffer": 0,
      "byteOffset": 18724,
      "byteLength": 23680,
      "byteStride": 32,
      "target": 34962
    },
    {
      "buffer": 0,
      "byteOffset": 42404,
      "byteLength": 4352,
      "byteStride": 32,
      "target": 34962
    },
    {
      "buffer": 0,
      "byteOffset": 46756,
      "byteLength": 12192,
      "byteStride": 32,
      "target": 34962
    },
    {
      "buffer": 0,
      "byteOffset": 58948,
      "byteLength": 14208,
      "byteStride": 32,
      "target": 34962
    },
    {
      "buffer": 0,
      "byteOffset": 73156,
      "byteLength": 43712,
      "byteStride": 32,
      "target": 34962
    }
  ],
  "samplers": [
    {
      "magFilter": 9729,
      "minFilter": 9987,
      "wrapS": 10497,
      "wrapT": 10497
    }
  ],
  "textures": [
    {
      "source": 1,
      "sampler": 0
    },
    {
      "source": 0,
      "sampler": 0
    },
    {
      "source": 2,
      "sampler": 0
    }
  ],
  "images": [
    {
      "name": "old_military_crate_nor_gl",
      "mimeType": "image/jpeg",
      "uri": "textures/old_military_crate_nor_gl_1k.jpg"
    },
    {
      "name": "old_military_crate_diff",
      "mimeType": "image/jpeg",
      "uri": "textures/old_military_crate_diff_1k.jpg"
    },
    {
      "name": "old_military_crate_metal-old_military_crate_rough",
      "mimeType": "image/jpeg",
      "uri": "textures/old_military_crate_arm_1k.jpg"
    }
  ],
  "buffers": [
    {
      "uri": "old_military_crate.bin",
      "byteLength": 116868
    }
  ],
  "materials": [
    {
      "name": "military_crate_m_01",
      "doubleSided": true,
      "pbrMetallicRoughness": {
        "baseColorTexture": {
          "index": 0
        },
        "metallicRoughnessTexture": {
          "index": 2
        }
      },
      "normalTexture": {
        "index": 1
      }
    }
  ],
  "meshes": [
    {
      "name": "Mesh.005",
      "primitives": [
        {
          "attributes": {
            "POSITION": 5,
            "NORMAL": 6,
            "TEXCOORD_0": 7
          },
          "mode": 4,
          "material": 0,
          "indices": 0
        }
      ]
    },
    {
      "name": "NurbsPath",
      "primitives": [
        {
          "attributes": {
            "POSITION": 8,
            "NORMAL": 9,
            "TEXCOORD_0": 10
          },
          "mode": 4,
          "material": 0,
          "indices": 1
        }
      ]
    },
    {
      "name": "Cube.006",
      "primitives": [
        {
          "attributes": {
            "POSITION": 11,
            "NORMAL": 12,
            "TEXCOORD_0": 13
          },
          "mode": 4,
          "material": 0,
          "indices": 2
        }
      ]
    },
    {
      "name": "Cloth_MFlat.002",
      "primitives": [
        {
          "attributes": {
            "POSITION": 14,
            "NORMAL": 15,
            "TEXCOORD_0": 16
          },
          "mode": 4,
          "material": 0,
          "indices": 3
        }
      ]
    },
    {
      "name": "Mesh.015",
      "primitives": [
        {
          "attributes": {
            "POSITION": 17,
            "NORMAL": 18,
            "TEXCOORD_0": 19
          },
          "mode": 4,
          "material": 0,
          "indices": 4
        }
      ]
    }
  ],
  "nodes": [
    {
      "name": "old_military_crate_lid_a",
      "translation": [
        -0.35402026772499084,
        0.2509384751319885,
        -0.22201603651046753
      ],
      "mesh": 0
    },
    {
      "name": "old_military_crate_loop_a",
      "translation": [
        -0.5,
        0.20923833549022675,
        0.22309820353984833
      ],
      "mesh": 1
    },
    {
      "name": "old_military_crate_latch_a",
      "translation": [
        -0.5,
        0.2271214872598648,
        0.22715239226818085
      ],
      "mesh": 2
    },
    {
      "name": "old_military_crate_cloth_a",
      "translation": [
        -0.5,
        0.02412991225719452,
        0
      ],
      "mesh": 3
    },
    {
      "name": "old_military_crate_a",
      "translation": [
        -0.5,
        0,
        0
      ],
      "mesh": 4
    },
    {
      "name": "old_military_crate_lid_b",
      "translation": [
        0.6459797620773315,
        0.2509384751319885,
        -0.22201603651046753
      ],
      "rotation": [
        0.9955394864082336,
        0,
        0,
        0.09434600174427032
      ],
      "mesh": 0
    },
    {
      "name": "old_military_crate_loop_b",
      "translation": [
        0.5,
        0.20923833549022675,
        0.22309820353984833
      ],
      "rotation": [
        0.9830907583236694,
        0,
        0,
        0.183118999004364
      ],
      "mesh": 1
    },
    {
      "name": "old_military_crate_latch_b",
      "translation": [
        0.5,
        0.2271214872598648,
        0.22715239226818085
      ],
      "mesh": 2
    },
    {
      "name": "old_military_crate_cloth_b",
      "translation": [
        0.5,
        0.02412991225719452,
        0
      ],
      "mesh": 3
    },
    {
      "name": "old_military_crate_b",
      "translation": [
        0.5,
        0,
        0
      ],
      "mesh": 4
    }
  ],
  "scenes": [
    {
      "name": "Scene",
      "nodes": [
        0,
        1,
        2,
        3,
        4,
        5,
        6,
        7,
        8,
        9
      ]
    }
  ],
  "scene": 0
}