{
  "asset": {
    "generator": "glTF-Transform v4.5.0",
    "version": "2.0"
  },
  "accessors": [
    {
      "type": "SCALAR",
      "componentType": 5123,
      "count": 8622,
      "bufferView": 0,
      "byteOffset": 0
    },
    {
      "type": "VEC3",
      "componentType": 5126,
      "count": 1642,
      "max": [
        0.26759958267211914,
        0.5735452175140381,
        0.22307318449020386
      ],
      "min": [
        -0.2604704797267914,
        -0.0014488622546195984,
        -0.23981982469558716
      ],
      "bufferView": 1,
      "byteOffset": 0
    },
    {
      "type": "VEC3",
      "componentType": 5126,
      "count": 1642,
      "bufferView": 1,
      "byteOffset": 12
    },
    {
      "type": "VEC2",
      "componentType": 5126,
      "count": 1642,
      "bufferView": 1,
      "byteOffset": 24
    }
  ],
  "bufferViews": [
    {
      "buffer": 0,
      "byteOffset": 0,
      "byteLength": 17244,
      "target": 34963
    },
    {
      "buffer": 0,
      "byteOffset": 17244,
      "byteLength": 52544,
      "byteStride": 32,
      "target": 34962
    }
  ],
  "samplers": [
    {
      "magFilter": 9729,
      "minFilter": 9987,
      "wrapS": 10497,
      "wrapT": 10497
    }
  ],
  "textures": [
    {
      "source": 1,
      "sampler": 0
    },
    {
      "source": 0,
      "sampler": 0
    },
    {
      "source": 2,
      "sampler": 0
    }
  ],
  "images": [
    {
      "name": "trashbag_nor_gl",
      "mimeType": "image/jpeg",
      "uri": "textures/trashbag_nor_gl_1k.jpg"
    },
    {
      "name": "trashbag_diff",
      "mimeType": "image/jpeg",
      "uri": "textures/trashbag_diff_1k.jpg"
    },
    {
      "name": "trashbag_rough",
      "mimeType": "image/jpeg",
      "uri": "textures/trashbag_arm_1k.jpg"
    }
  ],
  "buffers": [
    {
      "uri": "trashbag.bin",
      "byteLength": 69788
    }
  ],
  "materials": [
    {
      "name": "trashbag",
      "doubleSided": true,
      "pbrMetallicRoughness": {
        "metallicFactor": 0,
        "baseColorTexture": {
          "index": 0
        },
        "metallicRoughnessTexture": {
          "index": 2
        }
      },
      "normalTexture": {
        "index": 1
      }
    }
  ],
  "meshes": [
    {
      "name": "Plane.006",
      "primitives": [
        {
          "attributes": {
            "POSITION": 1,
            "NORMAL": 2,
            "TEXCOORD_0": 3
          },
          "mode": 4,
          "material": 0,
          "indices": 0
        }
      ]
    }
  ],
  "nodes": [
    {
      "name": "trashbag",
      "mesh": 0
    }
  ],
  "scenes": [
    {
      "name": "Scene",
      "nodes": [
        0
      ]
    }
  ],
  "scene": 0
}