{
  "asset": {
    "generator": "glTF-Transform v4.5.0",
    "version": "2.0"
  },
  "accessors": [
    {
      "type": "SCALAR",
      "componentType": 5123,
      "count": 6984,
      "bufferView": 0,
      "byteOffset": 0
    },
    {
      "type": "SCALAR",
      "componentType": 5123,
      "count": 1530,
      "bufferView": 0,
      "byteOffset": 13968
    },
    {
      "type": "VEC3",
      "componentType": 5126,
      "count": 2137,
      "max": [
        0.13673660159111023,
        0.21495330333709717,
        0.1389547735452652
      ],
      "min": [
        -0.13672421872615814,
        -0.21495330333709717,
        1.702955643168025e-8
      ],
      "bufferView": 1,
      "byteOffset": 0
    },
    {
      "type": "VEC3",
      "componentType": 5126,
      "count": 2137,
      "bufferView": 1,
      "byteOffset": 12
    },
    {
      "type": "VEC2",
      "componentType": 5126,
      "count": 2137,
      "bufferView": 1,
      "byteOffset": 24
    },
    {
      "type": "VEC3",
      "componentType": 5126,
      "count": 383,
      "max": [
        0.09193140268325806,
        0.170073002576828,
        0.12477032840251923
      ],
      "min": [
        -0.09193135052919388,
        -0.17007310688495636,
        0.027410930022597313
      ],
      "bufferView": 2,
      "byteOffset": 0
    },
    {
      "type": "VEC3",
      "componentType": 5126,
      "count": 383,
      "bufferView": 2,
      "byteOffset": 12
    },
    {
      "type": "VEC2",
      "componentType": 5126,
      "count": 383,
      "bufferView": 2,
      "byteOffset": 24
    }
  ],
  "bufferViews": [
    {
      "buffer": 0,
      "byteOffset": 0,
      "byteLength": 17028,
      "target": 34963
    },
    {
      "buffer": 0,
      "byteOffset": 17028,
      "byteLength": 68384,
      "byteStride": 32,
      "target": 34962
    },
    {
      "buffer": 0,
      "byteOffset": 85412,
      "byteLength": 12256,
      "byteStride": 32,
      "target": 34962
    }
  ],
  "samplers": [
    {
      "magFilter": 9729,
      "minFilter": 9987,
      "wrapS": 10497,
      "wrapT": 10497
    }
  ],
  "textures": [
    {
      "source": 2,
      "sampler": 0
    },
    {
      "source": 0,
      "sampler": 0
    },
    {
      "source": 1,
      "sampler": 0
    },
    {
      "source": 3,
      "sampler": 0
    },
    {
      "source": 5,
      "sampler": 0
    },
    {
      "source": 4,
      "sampler": 0
    },
    {
      "source": 6,
      "sampler": 0
    }
  ],
  "images": [
    {
      "name": "industrial_wall_lamp_emissive",
      "mimeType": "image/jpeg",
      "uri": "textures/industrial_wall_lamp_emissive_1k.jpg"
    },
    {
      "name": "industrial_wall_lamp_nor_gl",
      "mimeType": "image/jpeg",
      "uri": "textures/industrial_wall_lamp_nor_gl_1k.jpg"
    },
    {
      "name": "industrial_wall_lamp_diff",
      "mimeType": "image/jpeg",
      "uri": "textures/industrial_wall_lamp_diff_1k.jpg"
    },
    {
      "name": "industrial_wall_lamp_rough",
      "mimeType": "image/jpeg",
      "uri": "textures/industrial_wall_lamp_arm_1k.jpg"
    },
    {
      "name": "industrial_wall_lamp_glass_nor_gl",
      "mimeType": "image/jpeg",
      "uri": "textures/industrial_wall_lamp_glass_nor_gl_1k.jpg"
    },
    {
      "name": "industrial_wall_lamp_glass_diff-industrial_wall_lamp_glass_alpha",
      "mimeType": "image/jpeg",
      "uri": "textures/industrial_wall_lamp_glass_diff_1k.jpg"
    },
    {
      "name": "industrial_wall_lamp_glass_rough",
      "mimeType": "image/jpeg",
      "uri": "textures/industrial_wall_lamp_glass_arm_1k.jpg"
    }
  ],
  "buffers": [
    {
      "uri": "industrial_wall_lamp.bin",
      "byteLength": 97668
    }
  ],
  "materials": [
    {
      "name": "industrial_wall_lamp",
      "doubleSided": true,
      "pbrMetallicRoughness": {
        "metallicFactor": 0,
        "baseColorTexture": {
          "index": 0
        },
        "metallicRoughnessTexture": {
          "index": 3
        }
      },
      "emissiveFactor": [
        1,
        1,
        1
      ],
      "emissiveTexture": {
        "index": 1
      },
      "normalTexture": {
        "index": 2
      },
      "extensions": {
        "KHR_materials_emissive_strength": {
          "emissiveStrength": 100
        }
      }
    },
    {
      "name": "industrial_wall_lamp_glass",
      "alphaMode": "BLEND",
      "doubleSided": true,
      "pbrMetallicRoughness": {
        "metallicFactor": 0,
        "baseColorTexture": {
          "index": 4
        },
        "metallicRoughnessTexture": {
          "index": 6
        }
      },
      "normalTexture": {
        "index": 5
      },
      "extensions": {
        "KHR_materials_transmission": {
          "transmissionFactor": 1
        }
      }
    }
  ],
  "meshes": [
    {
      "name": "Sphere.004",
      "primitives": [
        {
          "attributes": {
            "POSITION": 2,
            "NORMAL": 3,
            "TEXCOORD_0": 4
          },
          "mode": 4,
          "material": 0,
          "indices": 0
        },
        {
          "attributes": {
            "POSITION": 5,
            "NORMAL": 6,
            "TEXCOORD_0": 7
          },
          "mode": 4,
          "material": 1,
          "indices": 1
        }
      ]
    }
  ],
  "nodes": [
    {
      "name": "industrial_wall_lamp",
      "mesh": 0
    }
  ],
  "scenes": [
    {
      "name": "Scene",
      "nodes": [
        0
      ]
    }
  ],
  "scene": 0,
  "extensionsUsed": [
    "KHR_materials_emissive_strength",
    "KHR_materials_transmission"
  ]
}