{
  "asset": {
    "generator": "glTF-Transform v4.5.0",
    "version": "2.0"
  },
  "accessors": [
    {
      "type": "SCALAR",
      "componentType": 5123,
      "count": 21141,
      "bufferView": 0,
      "byteOffset": 0
    },
    {
      "type": "VEC3",
      "componentType": 5126,
      "count": 6949,
      "max": [
        0.8006485104560852,
        1.3790106773376465,
        0.5474255084991455
      ],
      "min": [
        -0.8006485104560852,
        0.0023205429315567017,
        -0.5513726472854614
      ],
      "bufferView": 1,
      "byteOffset": 0
    },
    {
      "type": "VEC3",
      "componentType": 5126,
      "count": 6949,
      "bufferView": 1,
      "byteOffset": 12
    },
    {
      "type": "VEC2",
      "componentType": 5126,
      "count": 6949,
      "bufferView": 1,
      "byteOffset": 24
    }
  ],
  "bufferViews": [
    {
      "buffer": 0,
      "byteOffset": 0,
      "byteLength": 42284,
      "target": 34963
    },
    {
      "buffer": 0,
      "byteOffset": 42284,
      "byteLength": 222368,
      "byteStride": 32,
      "target": 34962
    }
  ],
  "samplers": [
    {
      "magFilter": 9729,
      "minFilter": 9987,
      "wrapS": 10497,
      "wrapT": 10497
    }
  ],
  "textures": [
    {
      "source": 1,
      "sampler": 0
    },
    {
      "source": 0,
      "sampler": 0
    },
    {
      "source": 2,
      "sampler": 0
    }
  ],
  "images": [
    {
      "name": "industrial_storage_cart_nor_gl",
      "mimeType": "image/jpeg",
      "uri": "textures/industrial_storage_cart_nor_gl_1k.jpg"
    },
    {
      "name": "industrial_storage_cart_diff",
      "mimeType": "image/jpeg",
      "uri": "textures/industrial_storage_cart_diff_1k.jpg"
    },
    {
      "name": "industrial_storage_cart_metal-industrial_storage_cart_rough",
      "mimeType": "image/jpeg",
      "uri": "textures/industrial_storage_cart_arm_1k.jpg"
    }
  ],
  "buffers": [
    {
      "uri": "industrial_storage_cart.bin",
      "byteLength": 264652
    }
  ],
  "materials": [
    {
      "name": "industrial_storage_cart",
      "doubleSided": true,
      "pbrMetallicRoughness": {
        "baseColorTexture": {
          "index": 0
        },
        "metallicRoughnessTexture": {
          "index": 2
        }
      },
      "normalTexture": {
        "index": 1
      }
    }
  ],
  "meshes": [
    {
      "name": "Cube.001",
      "primitives": [
        {
          "attributes": {
            "POSITION": 1,
            "NORMAL": 2,
            "TEXCOORD_0": 3
          },
          "mode": 4,
          "material": 0,
          "indices": 0
        }
      ]
    }
  ],
  "nodes": [
    {
      "name": "industrial_storage_cart",
      "mesh": 0
    }
  ],
  "scenes": [
    {
      "name": "Scene",
      "nodes": [
        0
      ]
    }
  ],
  "scene": 0
}