{
  "asset": {
    "generator": "glTF-Transform v4.5.0",
    "version": "2.0"
  },
  "accessors": [
    {
      "type": "SCALAR",
      "componentType": 5123,
      "count": 3993,
      "bufferView": 0,
      "byteOffset": 0
    },
    {
      "type": "SCALAR",
      "componentType": 5123,
      "count": 3387,
      "bufferView": 0,
      "byteOffset": 7988
    },
    {
      "type": "SCALAR",
      "componentType": 5123,
      "count": 3063,
      "bufferView": 0,
      "byteOffset": 14764
    },
    {
      "type": "SCALAR",
      "componentType": 5123,
      "count": 378,
      "bufferView": 0,
      "byteOffset": 20892
    },
    {
      "type": "VEC3",
      "componentType": 5126,
      "count": 1549,
      "max": [
        0.33075132966041565,
        2.1324479579925537,
        0.02374405972659588
      ],
      "min": [
        -0.33075132966041565,
        0.0019057989120483398,
        -0.07366762310266495
      ],
      "bufferView": 1,
      "byteOffset": 0
    },
    {
      "type": "VEC3",
      "componentType": 5126,
      "count": 1549,
      "bufferView": 1,
      "byteOffset": 12
    },
    {
      "type": "VEC2",
      "componentType": 5126,
      "count": 1549,
      "bufferView": 1,
      "byteOffset": 24
    },
    {
      "type": "VEC3",
      "componentType": 5126,
      "count": 1346,
      "max": [
        0.1513655185699463,
        2.133394241333008,
        0.024375006556510925
      ],
      "min": [
        -0.15153545141220093,
        0.013103306293487549,
        -0.07366762310266495
      ],
      "bufferView": 2,
      "byteOffset": 0
    },
    {
      "type": "VEC3",
      "componentType": 5126,
      "count": 1346,
      "bufferView": 2,
      "byteOffset": 12
    },
    {
      "type": "VEC2",
      "componentType": 5126,
      "count": 1346,
      "bufferView": 2,
      "byteOffset": 24
    },
    {
      "type": "VEC3",
      "componentType": 5126,
      "count": 1209,
      "max": [
        0.12861540913581848,
        2.1337544918060303,
        0.02374301850795746
      ],
      "min": [
        -0.12928694486618042,
        0.013103306293487549,
        -0.06560094654560089
      ],
      "bufferView": 3,
      "byteOffset": 0
    },
    {
      "type": "VEC3",
      "componentType": 5126,
      "count": 1209,
      "bufferView": 3,
      "byteOffset": 12
    },
    {
      "type": "VEC2",
      "componentType": 5126,
      "count": 1209,
      "bufferView": 3,
      "byteOffset": 24
    },
    {
      "type": "VEC3",
      "componentType": 5126,
      "count": 134,
      "max": [
        0.1859663724899292,
        1.1129491329193115,
        0.13010679185390472
      ],
      "min": [
        -0.1859663724899292,
        0.35689109563827515,
        0.01280827447772026
      ],
      "bufferView": 4,
      "byteOffset": 0
    },
    {
      "type": "VEC3",
      "componentType": 5126,
      "count": 134,
      "bufferView": 4,
      "byteOffset": 12
    },
    {
      "type": "VEC2",
      "componentType": 5126,
      "count": 134,
      "bufferView": 4,
      "byteOffset": 24
    }
  ],
  "bufferViews": [
    {
      "buffer": 0,
      "byteOffset": 0,
      "byteLength": 21648,
      "target": 34963
    },
    {
      "buffer": 0,
      "byteOffset": 21648,
      "byteLength": 49568,
      "byteStride": 32,
      "target": 34962
    },
    {
      "buffer": 0,
      "byteOffset": 71216,
      "byteLength": 43072,
      "byteStride": 32,
      "target": 34962
    },
    {
      "buffer": 0,
      "byteOffset": 114288,
      "byteLength": 38688,
      "byteStride": 32,
      "target": 34962
    },
    {
      "buffer": 0,
      "byteOffset": 152976,
      "byteLength": 4288,
      "byteStride": 32,
      "target": 34962
    }
  ],
  "samplers": [
    {
      "magFilter": 9729,
      "minFilter": 9987,
      "wrapS": 10497,
      "wrapT": 10497
    }
  ],
  "textures": [
    {
      "source": 1,
      "sampler": 0
    },
    {
      "source": 0,
      "sampler": 0
    },
    {
      "source": 2,
      "sampler": 0
    }
  ],
  "images": [
    {
      "name": "ladder_sectioned_01_nor_gl",
      "mimeType": "image/jpeg",
      "uri": "textures/ladder_sectioned_01_nor_gl_1k.jpg"
    },
    {
      "name": "ladder_sectioned_01_diff",
      "mimeType": "image/jpeg",
      "uri": "textures/ladder_sectioned_01_diff_1k.jpg"
    },
    {
      "name": "ladder_sectioned_01_metal-ladder_sectioned_01_rough",
      "mimeType": "image/jpeg",
      "uri": "textures/ladder_sectioned_01_arm_1k.jpg"
    }
  ],
  "buffers": [
    {
      "uri": "ladder_sectioned_01.bin",
      "byteLength": 157264
    }
  ],
  "materials": [
    {
      "name": "ladder_sectioned_01",
      "doubleSided": true,
      "pbrMetallicRoughness": {
        "baseColorTexture": {
          "index": 0
        },
        "metallicRoughnessTexture": {
          "index": 2
        }
      },
      "normalTexture": {
        "index": 1
      }
    }
  ],
  "meshes": [
    {
      "name": "Cube.011",
      "primitives": [
        {
          "attributes": {
            "POSITION": 4,
            "NORMAL": 5,
            "TEXCOORD_0": 6
          },
          "mode": 4,
          "material": 0,
          "indices": 0
        }
      ]
    },
    {
      "name": "Cube.024",
      "primitives": [
        {
          "attributes": {
            "POSITION": 7,
            "NORMAL": 8,
            "TEXCOORD_0": 9
          },
          "mode": 4,
          "material": 0,
          "indices": 1
        }
      ]
    },
    {
      "name": "Cube.040",
      "primitives": [
        {
          "attributes": {
            "POSITION": 10,
            "NORMAL": 11,
            "TEXCOORD_0": 12
          },
          "mode": 4,
          "material": 0,
          "indices": 2
        }
      ]
    },
    {
      "name": "Plane.038",
      "primitives": [
        {
          "attributes": {
            "POSITION": 13,
            "NORMAL": 14,
            "TEXCOORD_0": 15
          },
          "mode": 4,
          "material": 0,
          "indices": 3
        }
      ]
    }
  ],
  "nodes": [
    {
      "name": "ladder_section_01",
      "translation": [
        0.029939202591776848,
        -0.00008245301432907581,
        -0.02245440147817135
      ],
      "mesh": 0
    },
    {
      "name": "ladder_section_02",
      "translation": [
        0.0299392007291317,
        -0.0015863704029470682,
        0.017356252297759056
      ],
      "mesh": 1
    },
    {
      "name": "ladder_section_03",
      "translation": [
        0.0299391970038414,
        -0.00008245301432907581,
        0.0571243092417717
      ],
      "mesh": 2
    },
    {
      "name": "ladder_ribbon",
      "translation": [
        0.029939204454421997,
        0.00043202820234000683,
        -0.0520261749625206
      ],
      "mesh": 3
    }
  ],
  "scenes": [
    {
      "name": "Scene",
      "nodes": [
        0,
        1,
        2,
        3
      ]
    }
  ],
  "scene": 0
}