{
  "asset": {
    "generator": "glTF-Transform v4.5.0",
    "version": "2.0"
  },
  "accessors": [
    {
      "type": "SCALAR",
      "componentType": 5123,
      "count": 7500,
      "bufferView": 0,
      "byteOffset": 0
    },
    {
      "type": "VEC3",
      "componentType": 5126,
      "count": 1397,
      "max": [
        0.1943066269159317,
        0.1583968549966812,
        0.2907867133617401
      ],
      "min": [
        -0.19244243204593658,
        -0.18340270221233368,
        -0.22508370876312256
      ],
      "bufferView": 1,
      "byteOffset": 0
    },
    {
      "type": "VEC3",
      "componentType": 5126,
      "count": 1397,
      "bufferView": 1,
      "byteOffset": 12
    },
    {
      "type": "VEC2",
      "componentType": 5126,
      "count": 1397,
      "bufferView": 1,
      "byteOffset": 24
    }
  ],
  "bufferViews": [
    {
      "buffer": 0,
      "byteOffset": 0,
      "byteLength": 15000,
      "target": 34963
    },
    {
      "buffer": 0,
      "byteOffset": 15000,
      "byteLength": 44704,
      "byteStride": 32,
      "target": 34962
    }
  ],
  "samplers": [
    {
      "magFilter": 9729,
      "minFilter": 9987,
      "wrapS": 10497,
      "wrapT": 10497
    }
  ],
  "textures": [
    {
      "source": 1,
      "sampler": 0
    },
    {
      "source": 0,
      "sampler": 0
    },
    {
      "source": 2,
      "sampler": 0
    }
  ],
  "images": [
    {
      "name": "cardboard_box_01_nor_gl",
      "mimeType": "image/jpeg",
      "uri": "textures/cardboard_box_01_nor_gl_1k.jpg"
    },
    {
      "name": "cardboard_box_01_diff",
      "mimeType": "image/jpeg",
      "uri": "textures/cardboard_box_01_diff_1k.jpg"
    },
    {
      "name": "cardboard_box_01_rough",
      "mimeType": "image/jpeg",
      "uri": "textures/cardboard_box_01_arm_1k.jpg"
    }
  ],
  "buffers": [
    {
      "uri": "cardboard_box_01.bin",
      "byteLength": 59704
    }
  ],
  "materials": [
    {
      "name": "cardboard_box_01",
      "doubleSided": true,
      "pbrMetallicRoughness": {
        "metallicFactor": 0,
        "baseColorTexture": {
          "index": 0
        },
        "metallicRoughnessTexture": {
          "index": 2
        }
      },
      "normalTexture": {
        "index": 1
      }
    }
  ],
  "meshes": [
    {
      "name": "cardboard_box_01",
      "primitives": [
        {
          "attributes": {
            "POSITION": 1,
            "NORMAL": 2,
            "TEXCOORD_0": 3
          },
          "mode": 4,
          "material": 0,
          "indices": 0
        }
      ]
    }
  ],
  "nodes": [
    {
      "name": "cardboard_box_01",
      "translation": [
        0,
        0.17664676904678345,
        0
      ],
      "mesh": 0
    }
  ],
  "scenes": [
    {
      "name": "Scene",
      "nodes": [
        0
      ]
    }
  ],
  "scene": 0
}