{
  "asset": {
    "generator": "glTF-Transform v4.5.0",
    "version": "2.0"
  },
  "accessors": [
    {
      "type": "SCALAR",
      "componentType": 5123,
      "count": 144,
      "bufferView": 0,
      "byteOffset": 0
    },
    {
      "type": "SCALAR",
      "componentType": 5123,
      "count": 8841,
      "bufferView": 0,
      "byteOffset": 288
    },
    {
      "type": "SCALAR",
      "componentType": 5123,
      "count": 24132,
      "bufferView": 0,
      "byteOffset": 17972
    },
    {
      "type": "SCALAR",
      "componentType": 5123,
      "count": 4839,
      "bufferView": 0,
      "byteOffset": 66236
    },
    {
      "type": "SCALAR",
      "componentType": 5123,
      "count": 14676,
      "bufferView": 0,
      "byteOffset": 75916
    },
    {
      "type": "VEC3",
      "componentType": 5126,
      "count": 96,
      "max": [
        6.245830059051514,
        0.3625687062740326,
        4.000000476837158
      ],
      "min": [
        -6.245830059051514,
        -0.3633486330509186,
        0
      ],
      "bufferView": 1,
      "byteOffset": 0
    },
    {
      "type": "VEC3",
      "componentType": 5126,
      "count": 96,
      "bufferView": 1,
      "byteOffset": 12
    },
    {
      "type": "VEC2",
      "componentType": 5126,
      "count": 96,
      "bufferView": 1,
      "byteOffset": 24
    },
    {
      "type": "VEC3",
      "componentType": 5126,
      "count": 3293,
      "max": [
        2.3969690799713135,
        1.0392985343933105,
        0.5595990419387817
      ],
      "min": [
        -2.16691255569458,
        -2.6170096397399902,
        -0.6608393788337708
      ],
      "bufferView": 2,
      "byteOffset": 0
    },
    {
      "type": "VEC3",
      "componentType": 5126,
      "count": 3293,
      "bufferView": 2,
      "byteOffset": 12
    },
    {
      "type": "VEC2",
      "componentType": 5126,
      "count": 3293,
      "bufferView": 2,
      "byteOffset": 24
    },
    {
      "type": "VEC3",
      "componentType": 5126,
      "count": 10879,
      "max": [
        2.4022085666656494,
        1.1932659149169922,
        0.5570836663246155
      ],
      "min": [
        -2.1372463703155518,
        -3.3472485542297363,
        -0.626410961151123
      ],
      "bufferView": 3,
      "byteOffset": 0
    },
    {
      "type": "VEC3",
      "componentType": 5126,
      "count": 10879,
      "bufferView": 3,
      "byteOffset": 12
    },
    {
      "type": "VEC2",
      "componentType": 5126,
      "count": 10879,
      "bufferView": 3,
      "byteOffset": 24
    },
    {
      "type": "VEC3",
      "componentType": 5126,
      "count": 1797,
      "max": [
        6.1093668937683105,
        1.195859432220459,
        1.4830199480056763
      ],
      "min": [
        -6.1093668937683105,
        -2.003094434738159,
        -0.28363505005836487
      ],
      "bufferView": 4,
      "byteOffset": 0
    },
    {
      "type": "VEC3",
      "componentType": 5126,
      "count": 1797,
      "bufferView": 4,
      "byteOffset": 12
    },
    {
      "type": "VEC2",
      "componentType": 5126,
      "count": 1797,
      "bufferView": 4,
      "byteOffset": 24
    },
    {
      "type": "VEC3",
      "componentType": 5126,
      "count": 7189,
      "max": [
        6.1093668937683105,
        1.2110307216644287,
        1.4981913566589355
      ],
      "min": [
        -6.1093668937683105,
        -2.004338026046753,
        -0.046532489359378815
      ],
      "bufferView": 5,
      "byteOffset": 0
    },
    {
      "type": "VEC3",
      "componentType": 5126,
      "count": 7189,
      "bufferView": 5,
      "byteOffset": 12
    },
    {
      "type": "VEC2",
      "componentType": 5126,
      "count": 7189,
      "bufferView": 5,
      "byteOffset": 24
    }
  ],
  "bufferViews": [
    {
      "buffer": 0,
      "byteOffset": 0,
      "byteLength": 105268,
      "target": 34963
    },
    {
      "buffer": 0,
      "byteOffset": 105268,
      "byteLength": 3072,
      "byteStride": 32,
      "target": 34962
    },
    {
      "buffer": 0,
      "byteOffset": 108340,
      "byteLength": 105376,
      "byteStride": 32,
      "target": 34962
    },
    {
      "buffer": 0,
      "byteOffset": 213716,
      "byteLength": 348128,
      "byteStride": 32,
      "target": 34962
    },
    {
      "buffer": 0,
      "byteOffset": 561844,
      "byteLength": 57504,
      "byteStride": 32,
      "target": 34962
    },
    {
      "buffer": 0,
      "byteOffset": 619348,
      "byteLength": 230048,
      "byteStride": 32,
      "target": 34962
    }
  ],
  "samplers": [
    {
      "magFilter": 9729,
      "minFilter": 9987,
      "wrapS": 10497,
      "wrapT": 10497
    }
  ],
  "textures": [
    {
      "source": 1,
      "sampler": 0
    },
    {
      "source": 0,
      "sampler": 0
    },
    {
      "source": 2,
      "sampler": 0
    },
    {
      "source": 4,
      "sampler": 0
    },
    {
      "source": 3,
      "sampler": 0
    },
    {
      "source": 5,
      "sampler": 0
    }
  ],
  "images": [
    {
      "name": "overhead_crane_trim_nor_gl",
      "mimeType": "image/jpeg",
      "uri": "textures/overhead_crane_trim_nor_gl_1k.jpg"
    },
    {
      "name": "overhead_crane_trim_diff",
      "mimeType": "image/jpeg",
      "uri": "textures/overhead_crane_trim_diff_1k.jpg"
    },
    {
      "name": "overhead_crane_trim_metal-overhead_crane_trim_rough",
      "mimeType": "image/jpeg",
      "uri": "textures/overhead_crane_trim_arm_1k.jpg"
    },
    {
      "name": "overhead_crane_nor_gl",
      "mimeType": "image/jpeg",
      "uri": "textures/overhead_crane_nor_gl_1k.jpg"
    },
    {
      "name": "overhead_crane_diff",
      "mimeType": "image/jpeg",
      "uri": "textures/overhead_crane_diff_1k.jpg"
    },
    {
      "name": "overhead_crane_metal-overhead_crane_rough",
      "mimeType": "image/jpeg",
      "uri": "textures/overhead_crane_arm_1k.jpg"
    }
  ],
  "buffers": [
    {
      "uri": "overhead_crane.bin",
      "byteLength": 849396
    }
  ],
  "materials": [
    {
      "name": "overhead_crane_trim",
      "doubleSided": true,
      "pbrMetallicRoughness": {
        "baseColorTexture": {
          "index": 0
        },
        "metallicRoughnessTexture": {
          "index": 2
        }
      },
      "normalTexture": {
        "index": 1
      }
    },
    {
      "name": "overhead_crane",
      "doubleSided": true,
      "pbrMetallicRoughness": {
        "baseColorTexture": {
          "index": 3
        },
        "metallicRoughnessTexture": {
          "index": 5
        }
      },
      "normalTexture": {
        "index": 4
      }
    }
  ],
  "meshes": [
    {
      "name": "Cube.009",
      "primitives": [
        {
          "attributes": {
            "POSITION": 5,
            "NORMAL": 6,
            "TEXCOORD_0": 7
          },
          "mode": 4,
          "material": 0,
          "indices": 0
        }
      ]
    },
    {
      "name": "Cylinder.009",
      "primitives": [
        {
          "attributes": {
            "POSITION": 8,
            "NORMAL": 9,
            "TEXCOORD_0": 10
          },
          "mode": 4,
          "material": 0,
          "indices": 1
        },
        {
          "attributes": {
            "POSITION": 11,
            "NORMAL": 12,
            "TEXCOORD_0": 13
          },
          "mode": 4,
          "material": 1,
          "indices": 2
        }
      ]
    },
    {
      "name": "Cube.014",
      "primitives": [
        {
          "attributes": {
            "POSITION": 14,
            "NORMAL": 15,
            "TEXCOORD_0": 16
          },
          "mode": 4,
          "material": 0,
          "indices": 3
        },
        {
          "attributes": {
            "POSITION": 17,
            "NORMAL": 18,
            "TEXCOORD_0": 19
          },
          "mode": 4,
          "material": 1,
          "indices": 4
        }
      ]
    }
  ],
  "nodes": [
    {
      "name": "overhead_crane_rails",
      "translation": [
        0,
        -0.4038698971271515,
        -0.9552342891693115
      ],
      "mesh": 0
    },
    {
      "name": "overhead_crane_winch",
      "translation": [
        -0.06628131866455078,
        -0.565877377986908,
        0.029091954231262207
      ],
      "mesh": 1
    },
    {
      "name": "overhead_crane",
      "mesh": 2
    }
  ],
  "scenes": [
    {
      "name": "Scene",
      "nodes": [
        0,
        1,
        2
      ]
    }
  ],
  "scene": 0
}