{
  "asset": {
    "generator": "glTF-Transform v4.5.0",
    "version": "2.0"
  },
  "accessors": [
    {
      "type": "SCALAR",
      "componentType": 5123,
      "count": 786,
      "bufferView": 0,
      "byteOffset": 0
    },
    {
      "type": "SCALAR",
      "componentType": 5123,
      "count": 6276,
      "bufferView": 0,
      "byteOffset": 1572
    },
    {
      "type": "SCALAR",
      "componentType": 5123,
      "count": 1062,
      "bufferView": 0,
      "byteOffset": 14124
    },
    {
      "type": "VEC3",
      "componentType": 5126,
      "count": 298,
      "max": [
        0.35362547636032104,
        0.34155240654945374,
        0.1953081637620926
      ],
      "min": [
        -0.35362547636032104,
        0.29946234822273254,
        -0.1953081637620926
      ],
      "bufferView": 1,
      "byteOffset": 0
    },
    {
      "type": "VEC3",
      "componentType": 5126,
      "count": 298,
      "bufferView": 1,
      "byteOffset": 12
    },
    {
      "type": "VEC2",
      "componentType": 5126,
      "count": 298,
      "bufferView": 1,
      "byteOffset": 24
    },
    {
      "type": "VEC3",
      "componentType": 5126,
      "count": 1620,
      "max": [
        0.41224801540374756,
        0.3136237561702728,
        0.211556538939476
      ],
      "min": [
        -0.41224801540374756,
        -0.00793334562331438,
        -0.19544559717178345
      ],
      "bufferView": 2,
      "byteOffset": 0
    },
    {
      "type": "VEC3",
      "componentType": 5126,
      "count": 1620,
      "bufferView": 2,
      "byteOffset": 12
    },
    {
      "type": "VEC2",
      "componentType": 5126,
      "count": 1620,
      "bufferView": 2,
      "byteOffset": 24
    },
    {
      "type": "VEC3",
      "componentType": 5126,
      "count": 362,
      "max": [
        0.009643923491239548,
        0.3357900381088257,
        0.2071036398410797
      ],
      "min": [
        -0.016070956364274025,
        0.2390938252210617,
        0.1312473714351654
      ],
      "bufferView": 3,
      "byteOffset": 0
    },
    {
      "type": "VEC3",
      "componentType": 5126,
      "count": 362,
      "bufferView": 3,
      "byteOffset": 12
    },
    {
      "type": "VEC2",
      "componentType": 5126,
      "count": 362,
      "bufferView": 3,
      "byteOffset": 24
    }
  ],
  "bufferViews": [
    {
      "buffer": 0,
      "byteOffset": 0,
      "byteLength": 16248,
      "target": 34963
    },
    {
      "buffer": 0,
      "byteOffset": 16248,
      "byteLength": 9536,
      "byteStride": 32,
      "target": 34962
    },
    {
      "buffer": 0,
      "byteOffset": 25784,
      "byteLength": 51840,
      "byteStride": 32,
      "target": 34962
    },
    {
      "buffer": 0,
      "byteOffset": 77624,
      "byteLength": 11584,
      "byteStride": 32,
      "target": 34962
    }
  ],
  "samplers": [
    {
      "magFilter": 9729,
      "minFilter": 9987,
      "wrapS": 10497,
      "wrapT": 10497
    }
  ],
  "textures": [
    {
      "source": 1,
      "sampler": 0
    },
    {
      "source": 0,
      "sampler": 0
    },
    {
      "source": 2,
      "sampler": 0
    }
  ],
  "images": [
    {
      "name": "wooden_crate_01_nor_gl",
      "mimeType": "image/jpeg",
      "uri": "textures/wooden_crate_01_nor_gl_1k.jpg"
    },
    {
      "name": "wooden_crate_01_diff",
      "mimeType": "image/jpeg",
      "uri": "textures/wooden_crate_01_diff_1k.jpg"
    },
    {
      "name": "wooden_crate_01_metal-wooden_crate_01_rough",
      "mimeType": "image/jpeg",
      "uri": "textures/wooden_crate_01_arm_1k.jpg"
    }
  ],
  "buffers": [
    {
      "uri": "wooden_crate_01.bin",
      "byteLength": 89208
    }
  ],
  "materials": [
    {
      "name": "wooden_crate_01",
      "doubleSided": true,
      "pbrMetallicRoughness": {
        "baseColorTexture": {
          "index": 0
        },
        "metallicRoughnessTexture": {
          "index": 2
        }
      },
      "normalTexture": {
        "index": 1
      }
    }
  ],
  "meshes": [
    {
      "name": "Cube.005",
      "primitives": [
        {
          "attributes": {
            "POSITION": 3,
            "NORMAL": 4,
            "TEXCOORD_0": 5
          },
          "mode": 4,
          "material": 0,
          "indices": 0
        }
      ]
    },
    {
      "name": "Cube.020",
      "primitives": [
        {
          "attributes": {
            "POSITION": 6,
            "NORMAL": 7,
            "TEXCOORD_0": 8
          },
          "mode": 4,
          "material": 0,
          "indices": 1
        }
      ]
    },
    {
      "name": "Cube.001",
      "primitives": [
        {
          "attributes": {
            "POSITION": 9,
            "NORMAL": 10,
            "TEXCOORD_0": 11
          },
          "mode": 4,
          "material": 0,
          "indices": 2
        }
      ]
    }
  ],
  "nodes": [
    {
      "name": "wooden_crate_01_lid",
      "mesh": 0
    },
    {
      "name": "wooden_crate_01",
      "mesh": 1
    },
    {
      "name": "wooden_crate_01_latch",
      "mesh": 2
    }
  ],
  "scenes": [
    {
      "name": "Scene",
      "nodes": [
        0,
        1,
        2
      ]
    }
  ],
  "scene": 0
}