{
  "asset": {
    "generator": "glTF-Transform v4.5.0",
    "version": "2.0"
  },
  "accessors": [
    {
      "type": "SCALAR",
      "componentType": 5123,
      "count": 3354,
      "bufferView": 0,
      "byteOffset": 0
    },
    {
      "type": "SCALAR",
      "componentType": 5123,
      "count": 5040,
      "bufferView": 0,
      "byteOffset": 6708
    },
    {
      "type": "SCALAR",
      "componentType": 5123,
      "count": 5331,
      "bufferView": 0,
      "byteOffset": 16788
    },
    {
      "type": "VEC3",
      "componentType": 5126,
      "count": 1739,
      "max": [
        0.1748250126838684,
        0.4139576256275177,
        0.31296947598457336
      ],
      "min": [
        -0.1748250126838684,
        0,
        -0.31296947598457336
      ],
      "bufferView": 1,
      "byteOffset": 0
    },
    {
      "type": "VEC3",
      "componentType": 5126,
      "count": 1739,
      "bufferView": 1,
      "byteOffset": 12
    },
    {
      "type": "VEC2",
      "componentType": 5126,
      "count": 1739,
      "bufferView": 1,
      "byteOffset": 24
    },
    {
      "type": "VEC3",
      "componentType": 5126,
      "count": 3088,
      "max": [
        0.00783482939004898,
        0.005726039409637451,
        0.3156759738922119
      ],
      "min": [
        -0.20111800730228424,
        -0.030438140034675598,
        -0.3156759440898895
      ],
      "bufferView": 2,
      "byteOffset": 0
    },
    {
      "type": "VEC3",
      "componentType": 5126,
      "count": 3088,
      "bufferView": 2,
      "byteOffset": 12
    },
    {
      "type": "VEC2",
      "componentType": 5126,
      "count": 3088,
      "bufferView": 2,
      "byteOffset": 24
    },
    {
      "type": "VEC3",
      "componentType": 5126,
      "count": 3362,
      "max": [
        0.23562006652355194,
        0.005726039409637451,
        0.3150976598262787
      ],
      "min": [
        -0.007834830321371555,
        -0.030438140034675598,
        -0.31625422835350037
      ],
      "bufferView": 3,
      "byteOffset": 0
    },
    {
      "type": "VEC3",
      "componentType": 5126,
      "count": 3362,
      "bufferView": 3,
      "byteOffset": 12
    },
    {
      "type": "VEC2",
      "componentType": 5126,
      "count": 3362,
      "bufferView": 3,
      "byteOffset": 24
    }
  ],
  "bufferViews": [
    {
      "buffer": 0,
      "byteOffset": 0,
      "byteLength": 27452,
      "target": 34963
    },
    {
      "buffer": 0,
      "byteOffset": 27452,
      "byteLength": 55648,
      "byteStride": 32,
      "target": 34962
    },
    {
      "buffer": 0,
      "byteOffset": 83100,
      "byteLength": 98816,
      "byteStride": 32,
      "target": 34962
    },
    {
      "buffer": 0,
      "byteOffset": 181916,
      "byteLength": 107584,
      "byteStride": 32,
      "target": 34962
    }
  ],
  "samplers": [
    {
      "magFilter": 9729,
      "minFilter": 9987,
      "wrapS": 10497,
      "wrapT": 10497
    }
  ],
  "textures": [
    {
      "source": 1,
      "sampler": 0
    },
    {
      "source": 0,
      "sampler": 0
    },
    {
      "source": 2,
      "sampler": 0
    }
  ],
  "images": [
    {
      "name": "industrial_pastic_container_nor_gl",
      "mimeType": "image/jpeg",
      "uri": "textures/industrial_pastic_container_nor_gl_1k.jpg"
    },
    {
      "name": "industrial_pastic_container_diff",
      "mimeType": "image/jpeg",
      "uri": "textures/industrial_pastic_container_diff_1k.jpg"
    },
    {
      "name": "industrial_pastic_container_metal-industrial_pastic_container_rough",
      "mimeType": "image/jpeg",
      "uri": "textures/industrial_pastic_container_arm_1k.jpg"
    }
  ],
  "buffers": [
    {
      "uri": "industrial_pastic_container.bin",
      "byteLength": 289500
    }
  ],
  "materials": [
    {
      "name": "industrial_pastic_container",
      "doubleSided": true,
      "pbrMetallicRoughness": {
        "baseColorTexture": {
          "index": 0
        },
        "metallicRoughnessTexture": {
          "index": 2
        }
      },
      "normalTexture": {
        "index": 1
      }
    }
  ],
  "meshes": [
    {
      "name": "Cube.025",
      "primitives": [
        {
          "attributes": {
            "POSITION": 3,
            "NORMAL": 4,
            "TEXCOORD_0": 5
          },
          "mode": 4,
          "material": 0,
          "indices": 0
        }
      ]
    },
    {
      "name": "Cube.019",
      "primitives": [
        {
          "attributes": {
            "POSITION": 6,
            "NORMAL": 7,
            "TEXCOORD_0": 8
          },
          "mode": 4,
          "material": 0,
          "indices": 1
        }
      ]
    },
    {
      "name": "Cube.021",
      "primitives": [
        {
          "attributes": {
            "POSITION": 9,
            "NORMAL": 10,
            "TEXCOORD_0": 11
          },
          "mode": 4,
          "material": 0,
          "indices": 2
        }
      ]
    }
  ],
  "nodes": [
    {
      "name": "industrial_pastic_container",
      "mesh": 0
    },
    {
      "name": "industrial_pastic_container_lid_a",
      "translation": [
        0.1674124002456665,
        0.40918752551078796,
        -0.0005783046362921596
      ],
      "rotation": [
        0,
        0,
        0.7766003608703613,
        0.6299935579299927
      ],
      "mesh": 1
    },
    {
      "name": "industrial_pastic_container_lid_b",
      "translation": [
        -0.1674124002456665,
        0.40918752551078796,
        0
      ],
      "rotation": [
        0,
        0,
        -0.7646005749702454,
        0.6445044279098511
      ],
      "mesh": 2
    }
  ],
  "scenes": [
    {
      "name": "Scene",
      "nodes": [
        0,
        1,
        2
      ]
    }
  ],
  "scene": 0
}