{
  "asset": {
    "generator": "glTF-Transform v4.5.0",
    "version": "2.0"
  },
  "accessors": [
    {
      "type": "SCALAR",
      "componentType": 5123,
      "count": 7497,
      "bufferView": 0,
      "byteOffset": 0
    },
    {
      "type": "VEC3",
      "componentType": 5126,
      "count": 1740,
      "max": [
        0.18004146218299866,
        0.45486611127853394,
        0.08313123136758804
      ],
      "min": [
        -0.17000055313110352,
        0.00006935097917448729,
        -0.0886126384139061
      ],
      "bufferView": 1,
      "byteOffset": 0
    },
    {
      "type": "VEC3",
      "componentType": 5126,
      "count": 1740,
      "bufferView": 1,
      "byteOffset": 12
    },
    {
      "type": "VEC2",
      "componentType": 5126,
      "count": 1740,
      "bufferView": 1,
      "byteOffset": 24
    }
  ],
  "bufferViews": [
    {
      "buffer": 0,
      "byteOffset": 0,
      "byteLength": 14996,
      "target": 34963
    },
    {
      "buffer": 0,
      "byteOffset": 14996,
      "byteLength": 55680,
      "byteStride": 32,
      "target": 34962
    }
  ],
  "samplers": [
    {
      "magFilter": 9729,
      "minFilter": 9987,
      "wrapS": 10497,
      "wrapT": 10497
    }
  ],
  "textures": [
    {
      "source": 1,
      "sampler": 0
    },
    {
      "source": 0,
      "sampler": 0
    },
    {
      "source": 2,
      "sampler": 0
    }
  ],
  "images": [
    {
      "name": "metal_jerrycan_nor_gl",
      "mimeType": "image/jpeg",
      "uri": "textures/metal_jerrycan_nor_gl_1k.jpg"
    },
    {
      "name": "metal_jerrycan_diff",
      "mimeType": "image/jpeg",
      "uri": "textures/metal_jerrycan_diff_1k.jpg"
    },
    {
      "name": "metal_jerrycan_metal-metal_jerrycan_rough",
      "mimeType": "image/jpeg",
      "uri": "textures/metal_jerrycan_arm_1k.jpg"
    }
  ],
  "buffers": [
    {
      "uri": "metal_jerrycan.bin",
      "byteLength": 70676
    }
  ],
  "materials": [
    {
      "name": "metal_jerrycan",
      "doubleSided": true,
      "pbrMetallicRoughness": {
        "baseColorTexture": {
          "index": 0
        },
        "metallicRoughnessTexture": {
          "index": 2
        }
      },
      "normalTexture": {
        "index": 1
      }
    }
  ],
  "meshes": [
    {
      "name": "Cube.001",
      "primitives": [
        {
          "attributes": {
            "POSITION": 1,
            "NORMAL": 2,
            "TEXCOORD_0": 3
          },
          "mode": 4,
          "material": 0,
          "indices": 0
        }
      ]
    }
  ],
  "nodes": [
    {
      "name": "metal_jerrycan",
      "mesh": 0
    }
  ],
  "scenes": [
    {
      "name": "Scene",
      "nodes": [
        0
      ]
    }
  ],
  "scene": 0
}